# xmcd
#
# Track frame offsets: 
#        200
#        15550
#        23487
#        29250
#        41227
#        52147
#        61380
#        71575
#        82655
#        95337
#
# Disc length: 1423 seconds
#
# Revision: 2
# Processed by: cddbd v1.4PL0 Copyright (c) Steve Scherf et al.
# Submitted via: ExactAudioCopy v0.90b4
#
DISCID=76058d0a
DTITLE=Koos Du Plessis - As Almal Ver Is...
DYEAR=1992
DGENRE=Afrikaans
TTITLE0=Molberge - Herrinneringe Aan Springs
TTITLE1=Swerwers
TTITLE2=Karla
TTITLE3=Irma
TTITLE4=Boshoek
TTITLE5=Onthou Jy Nog
TTITLE6=Groet Sonder Woorde
TTITLE7=As Almal Ver Is
TTITLE8=Môreliedjie
TTITLE9=Miskien Karien
EXTD=
EXTT0=
EXTT1=
EXTT2=
EXTT3=
EXTT4=
EXTT5=
EXTT6=
EXTT7=
EXTT8=
EXTT9=
PLAYORDER=
